<svg xmlns="http://www.w3.org/2000/svg" viewBox="0 0 40 40" fill="none">
    <circle cx="20" cy="20" r="20" fill="url(#favGrad)" />
    <path
        d="M20 11c-5 0-9 4-9 9.2 0 4.6 3.5 8.3 8 8.7v-3.3c-2.6-.4-4.6-2.6-4.6-5.4 0-3.1 2.5-5.6 5.6-5.6.7 0 1.4.1 2 .4-.3.6-.5 1.3-.5 2 0 2.4 1.9 4.3 4.3 4.3.4 0 .8-.1 1.2-.2-.5 3.9-3.9 6.9-8 6.9h-.9v3.3c.3 0 .6 0 .9 0 6.1 0 11-4.9 11-11S26.1 11 20 11z"
        fill="#fff" />
    <defs>
        <linearGradient id="favGrad" x1="0" y1="0" x2="40" y2="40">
            <stop stop-color="#a855f7" />
            <stop offset="1" stop-color="#ea580c" />
        </linearGradient>
    </defs>
</svg>
